<?xml version="1.0" encoding="UTF-8" standalone="no"?>
<!DOCTYPE svg PUBLIC "-//W3C//DTD SVG 1.1//EN" "http://www.w3.org/Graphics/SVG/1.1/DTD/svg11.dtd">
<svg version="1.1" xmlns="http://www.w3.org/2000/svg" xmlns:xlink="http://www.w3.org/1999/xlink" preserveAspectRatio="xMidYMid meet" viewBox="0 0 48 48"><defs><path d="M17.3 36.88L11.64 31.22L32.86 10.01L38.51 15.66L17.3 36.88ZM17.41 35.29L37.04 15.66L35.46 14.09L15.83 33.72L17.41 35.29Z" id="f3NBIPPIuS"></path><path d="M41.85 10.52C42.34 11 42.34 11.78 41.85 12.27C41.5 12.62 40.61 13.51 39.19 14.93L33.57 9.3C34.99 7.88 35.87 7 36.23 6.64C36.71 6.16 37.49 6.16 37.98 6.64C38.93 7.59 40.9 9.57 41.85 10.52Z" id="a230xxPh4W"></path><path d="M8.07 40.45L10.9 31.96L16.56 37.62L8.07 40.45Z" id="a5bDKy6dch"></path></defs><g visibility="inherit"><g visibility="inherit"><g visibility="inherit"><g><filter id="shadow6988956" x="2.64" y="1.01" width="45.87" height="45.87" filterUnits="userSpaceOnUse" primitiveUnits="userSpaceOnUse"><feFlood></feFlood><feComposite in2="SourceAlpha" operator="in"></feComposite><feGaussianBlur stdDeviation="1"></feGaussianBlur><feOffset dx="1" dy="1" result="afterOffset"></feOffset><feFlood flood-color="#000000" flood-opacity="0.5"></feFlood><feComposite in2="afterOffset" operator="in"></feComposite><feMorphology operator="dilate" radius="1"></feMorphology><feComposite in2="SourceAlpha" operator="out"></feComposite></filter><path d="M17.3 36.88L11.64 31.22L32.86 10.01L38.51 15.66L17.3 36.88ZM17.41 35.29L37.04 15.66L35.46 14.09L15.83 33.72L17.41 35.29Z" id="f54b9ipb" fill="white" fill-opacity="1" filter="url(#shadow6988956)"></path></g><use xlink:href="#f3NBIPPIuS" opacity="1" fill="#393939" fill-opacity="1"></use></g><g visibility="inherit"><g><filter id="shadow558514" x="24.57" y="-2.72" width="27.65" height="27.65" filterUnits="userSpaceOnUse" primitiveUnits="userSpaceOnUse"><feFlood></feFlood><feComposite in2="SourceAlpha" operator="in"></feComposite><feGaussianBlur stdDeviation="1"></feGaussianBlur><feOffset dx="1" dy="1" result="afterOffset"></feOffset><feFlood flood-color="#000000" flood-opacity="0.5"></feFlood><feComposite in2="afterOffset" operator="in"></feComposite><feMorphology operator="dilate" radius="1"></feMorphology><feComposite in2="SourceAlpha" operator="out"></feComposite></filter><path d="M41.85 10.52C42.34 11 42.34 11.78 41.85 12.27C41.5 12.62 40.61 13.51 39.19 14.93L33.57 9.3C34.99 7.88 35.87 7 36.23 6.64C36.71 6.16 37.49 6.16 37.98 6.64C38.93 7.59 40.9 9.57 41.85 10.52Z" id="e5rZnoSBvf" fill="white" fill-opacity="1" filter="url(#shadow558514)"></path></g><use xlink:href="#a230xxPh4W" opacity="1" fill="#393939" fill-opacity="1"></use></g><g visibility="inherit"><g><filter id="shadow8413538" x="-0.93" y="22.96" width="27.49" height="27.49" filterUnits="userSpaceOnUse" primitiveUnits="userSpaceOnUse"><feFlood></feFlood><feComposite in2="SourceAlpha" operator="in"></feComposite><feGaussianBlur stdDeviation="1"></feGaussianBlur><feOffset dx="1" dy="1" result="afterOffset"></feOffset><feFlood flood-color="#000000" flood-opacity="0.5"></feFlood><feComposite in2="afterOffset" operator="in"></feComposite><feMorphology operator="dilate" radius="1"></feMorphology><feComposite in2="SourceAlpha" operator="out"></feComposite></filter><path d="M8.07 40.45L10.9 31.96L16.56 37.62L8.07 40.45Z" id="f2AVB5TTDD" fill="white" fill-opacity="1" filter="url(#shadow8413538)"></path></g><use xlink:href="#a5bDKy6dch" opacity="1" fill="#393939" fill-opacity="1"></use></g></g></g></svg>